<svg width="48" height="48" viewBox="0 0 48 48" fill="none" xmlns="http://www.w3.org/2000/svg">
<g clip-path="url(#clip0_256_192)">
<path fill-rule="evenodd" clip-rule="evenodd" d="M0 0H48V48H0V0Z" fill="#964800"/>
<path fill-rule="evenodd" clip-rule="evenodd" d="M10.409 33.3603C8.45409 30.5566 8.52551 26.0132 10.6727 23.7551C11.4772 22.909 12.6918 23.5979 13.1977 24.6501C15.2644 28.949 20.1143 30.5219 24.68 30.5219C29.0528 30.5219 32.6283 28.8106 34.1472 25.5112C34.6418 24.4367 35.8204 23.6615 36.7523 24.39C39.0846 26.2129 39.9284 29.8448 37.6953 33.3189C32.4221 41.5242 15.1941 40.2232 10.409 33.3603ZM24.6113 28.0506C20.1934 28.0506 14.6404 25.5463 14.6404 21.2048C14.6404 16.624 20.4414 15.7664 21.8655 11.7115C22.3151 10.4312 23.5375 9.24594 24.6926 9.95802C26.3281 10.9663 27.1292 12.5799 27.1292 14.7524C27.1292 16.8624 26.2593 18.1428 25.602 18.8091C25.246 19.1701 25.101 19.7522 25.364 20.1857V20.1857C25.6397 20.6404 26.2486 20.7559 26.6725 20.4348C27.2677 19.984 28.0831 19.3706 28.6994 18.9226C29.1096 18.6244 29.6278 18.495 30.1104 18.6507C31.8054 19.1973 32.751 20.5574 32.751 22.5688C32.751 25.9243 28.2792 28.0514 24.6113 28.0506Z" fill="white"/>
</g>
<defs>
<clipPath id="clip0_256_192">
<rect width="48" height="48" fill="white"/>
</clipPath>
</defs>
</svg>
