<svg width="48" height="48" viewBox="0 0 48 48" fill="none" xmlns="http://www.w3.org/2000/svg">
<rect width="48" height="48" fill="#964800"/>
<path d="M15.5074 21.5352H14.3475V28.1253H15.5074L15.5003 25.4752H15.7735L16.4413 28.1253H17.7991L16.7684 24.663L17.6693 21.5352H16.4142L15.7522 23.9027H15.5003L15.5074 21.5352Z" fill="white"/>
<path d="M19.479 25.6553L19.7052 22.3539H19.781L20.0072 25.6553H19.479ZM18.0172 28.134H19.3096L19.4319 26.3805H20.0543L20.1772 28.134H21.469L20.7806 21.5312H18.7056L18.0172 28.134Z" fill="white"/>
<path d="M23.1533 25.6553L23.3796 22.3539H23.4553L23.6815 25.6553H23.1533ZM21.6915 28.134H22.9839L23.1533 25.6553H23.6815L23.8515 28.134H25.1433L24.4549 21.5312H22.3799L21.6915 28.134Z" fill="white"/>
<path d="M25.6632 21.5234H28.721V28.1262H27.4005V22.3461H26.9838V28.1262H25.6632V21.5234Z" fill="white"/>
<path d="M30.9075 25.1549V22.3461H31.0806C31.2214 22.3461 31.3242 22.4651 31.3242 22.6762V24.8248C31.3242 25.0359 31.2214 25.1549 31.0806 25.1549H30.9075ZM29.5869 28.1262H30.9075V25.8802H31.6652C32.5852 25.8802 32.6447 25.1658 32.6447 24.7003V22.7033C32.6447 22.2432 32.5852 21.5234 31.6652 21.5234H29.5869V28.1262Z" fill="white"/>
<path d="M35.2479 27.06C35.2479 27.1737 35.1613 27.2765 35.0368 27.2765C34.9611 27.2765 34.8312 27.2278 34.8312 27.06V22.5626C34.8312 22.3894 34.9611 22.3461 35.0368 22.3461C35.1613 22.3461 35.2479 22.4489 35.2479 22.5626V27.06ZM33.5106 26.9463C33.5106 27.4118 33.5702 28.1262 34.4902 28.1262H35.5889C36.5089 28.1262 36.5684 27.4118 36.5684 26.9463V22.7033C36.5684 22.2432 36.5089 21.5234 35.5889 21.5234H34.4902C33.5702 21.5234 33.5106 22.2432 33.5106 22.7033V26.9463Z" fill="white"/>
<path d="M40.8657 21.5234H42.5867V28.1262H41.2662V23.9859H41.2175L40.5356 28.1262H39.4802L38.8037 23.9859H38.755V28.1262H37.4344V21.5234H39.1501L40.0106 26.167L40.8657 21.5234Z" fill="white"/>
<path fill-rule="evenodd" clip-rule="evenodd" d="M5.69648 26.557C5.46114 26.2195 5.33217 25.7906 5.31071 25.3626C5.25225 24.1966 6.51578 24.6927 7.52883 25.273C8.14749 25.6273 8.90503 25.7734 9.63617 25.7734C10.1901 25.7734 10.6977 25.674 11.1254 25.4783C12.201 24.9861 13.6478 24.3079 13.5869 25.4892C13.5694 25.8289 13.4576 26.1902 13.2292 26.5456C11.7735 28.8108 7.01747 28.4516 5.69648 26.557ZM9.61719 25.0912C8.39758 25.0912 6.8646 24.3999 6.8646 23.2013C6.8646 22.5079 7.34605 22.1236 7.8458 21.7333C8.74758 21.029 10.3123 20.2758 10.3123 21.4201V21.4201C10.3123 22.0026 10.0721 22.356 9.89071 22.54C9.79241 22.6396 9.7524 22.8003 9.82498 22.92V22.92C9.90111 23.0455 10.0692 23.0774 10.1862 22.9888C10.3272 22.882 10.5129 22.7422 10.6703 22.6265C10.8315 22.508 11.038 22.4527 11.2232 22.5282C11.6358 22.6963 11.8643 23.0584 11.8643 23.5779C11.8643 24.5042 10.6298 25.0914 9.61719 25.0912Z" fill="white"/>
</svg>
